<svg xmlns="http://www.w3.org/2000/svg" width="226" height="226" viewBox="0 0 226 226">
  <g id="グループ_2" data-name="グループ 2" transform="translate(-86 -328)">
    <circle id="楕円形_2" data-name="楕円形 2" cx="113" cy="113" r="113" transform="translate(86 328)" fill="#fb503b"/>
    <path id="パス_2" data-name="パス 2" d="M211.1,132.715s-23.14-2.085-51.031,18.945a78.345,78.345,0,0,0-19.637,21.38c-10.859,16.013-25.077,49.65-25.077,49.65-.019.04-.043.093-.061.134a3.581,3.581,0,0,0,1.877,4.7,3.872,3.872,0,0,0,4.7-1.877l.023-.053s3.337-6.765,4.088-8.108c1.493-2.691,4.837-8.459,7.994-13.492,6.392-10.954,15.835-8.669,20.472-8.357,4.967.335,13.923,1.3,16.668-2.084,2.729-3.363-5.414-7.853-5.414-7.853s15.03,2.4,18.291-3.319c2.81-4.932-5.825-10.464-5.825-10.464s13.761,3.5,17.789-4c2.067-3.848-3.8-8.363-3.8-8.363s12,1.356,15.363-4.956c2.379-4.463-6.264-9.065-6.264-9.065s8.054.414,12.379-3.729C218.226,137.415,216.929,132.591,211.1,132.715Z" transform="translate(33 260.342)" fill="#fff"/>
  </g>
</svg>
