<svg xmlns="http://www.w3.org/2000/svg" width="226" height="226" viewBox="0 0 226 226">
  <g id="グループ_1" data-name="グループ 1" transform="translate(-86 -78)">
    <circle id="楕円形_1" data-name="楕円形 1" cx="113" cy="113" r="113" transform="translate(86 78)" fill="#fb503b"/>
    <g id="ユーザー_ログインのシルエットのアイコン素材" data-name="ユーザー・ログインのシルエットのアイコン素材" transform="translate(131.212 135)">
      <path id="パス_1" data-name="パス 1" d="M115.934,93.366a5.768,5.768,0,0,0-1.875-2.483c-8.071-7.537-30.186-20.774-31.75-21.124h-.661V56.723a5.338,5.338,0,0,0,.436-.331c.09-.065.18-.133.272-.208,2.792-2.261,3.563-7.1,3.781-8.663.013-.08.031-.146.043-.229a3.527,3.527,0,0,0,1.094.181c3.951,0,4.577-8.052,4.816-10.185a4.942,4.942,0,0,0-1.4-4.211,11.028,11.028,0,0,0,.532-1.452,28.484,28.484,0,0,0,1.049-5.977c.24-3.363-.054-7.023-1.654-9.283a21.948,21.948,0,0,0-2.409-2.777c-2.3-2.281-5.313-4.6-7.078-4.6C78.265,3.844,74.606.5,67.839.054c-.4-.036-.826-.036-1.268-.054h-.092C60.853,0,51.292,6.675,47.467,13.588c-3.824,6.895-4.965,9.4-3.034,18.037a8.777,8.777,0,0,0,.552,1.452,4.942,4.942,0,0,0-1.4,4.211c.22,2.133.846,10.185,4.8,10.185a3.657,3.657,0,0,0,1.123-.183h0a24.2,24.2,0,0,0,1.158,4.6c.719,1.987,1.785,3.99,3.347,4.836v4.483l-.126,8.4,0,.149h-.533c-1.545.35-23.641,13.588-31.731,21.125a5.841,5.841,0,0,0-1.895,2.483c-.625,3.181-1.58,7.849-1.931,11.158a1.211,1.211,0,0,0,1.14,1.323l15.128,1.012c2.274.093,4.551.136,6.827.21q1.668.055,3.331.1,6.71.193,13.416.277,1.919.025,3.829.04c2.161.017,4.324.067,6.483.067q16.824,0,33.63-.7l15.128-.994a1.213,1.213,0,0,0,1.159-1.323C117.517,101.233,116.56,96.547,115.934,93.366Z" fill="#fff"/>
    </g>
  </g>
</svg>
